<svg xmlns="http://www.w3.org/2000/svg" version="1.1" xmlns:xlink="http://www.w3.org/1999/xlink" xmlns:svgjs="http://svgjs.com/svgjs" width="1440" height="560" preserveAspectRatio="none" viewBox="0 0 1440 560"><g mask="url(&quot;#SvgjsMask1033&quot;)" fill="none"><path d="M691.07 645.5C850.68 623.6 943.7 252.65 1201.59 252.27 1459.47 251.89 1570.52 492.34 1712.1 498.67" stroke="rgba(34, 139, 230, 1)" stroke-width="2"></path><path d="M221.25 603.25C356.91 589.54 440.1 300.82 673.85 298.93 907.61 297.04 900.15 368.93 1126.46 368.93 1352.76 368.93 1464.56 299.14 1579.06 298.93" stroke="rgba(34, 139, 230, 1)" stroke-width="2"></path><path d="M462.7 671.12C571.17 652.63 521.08 396.62 797.61 385.54 1074.15 374.46 1294.1 207.88 1467.44 206.34" stroke="rgba(34, 139, 230, 1)" stroke-width="2"></path><path d="M822.87 586.32C976.14 543.77 1027.52 119.27 1251.8 116.35 1476.07 113.43 1561.75 318.22 1680.72 323.55" stroke="rgba(34, 139, 230, 1)" stroke-width="2"></path><path d="M530.17 661.92C650.61 649 723.08 388.35 928.96 386.71 1134.84 385.07 1128.36 456.71 1327.75 456.71 1527.15 456.71 1625.32 386.97 1726.54 386.71" stroke="rgba(34, 139, 230, 1)" stroke-width="2"></path></g><defs><mask id="SvgjsMask1033"><rect width="1440" height="560" fill="#ffffff"></rect></mask></defs></svg>