<svg xmlns="http://www.w3.org/2000/svg" viewBox="0 0 1123 458"><g transform="matrix(1 0 0 -1 0 458)" fill="#64BDA1" fill-rule="evenodd"><path d="M185.5 78c-2 0-2 3 0 3s2-3 0-3M57.5 179c-2 0-2 3 0 3s2-3 0-3M518.5 396c-2 0-2 3 0 3s2-3 0-3M425.5 277c-2 0-2 3 0 3s2-3 0-3M176.5 145c-2 0-2 3 0 3s2-3 0-3M211.5 378c-2 0-2 3 0 3s2-3 0-3M554.5 185c-2 0-2 3 0 3s2-3 0-3M336.5 237c-2 0-2 3 0 3s2-3 0-3M5.5 82c-2 0-2 3 0 3s2-3 0-3M369.5 123c-2 0-2 3 0 3s2-3 0-3M435.5 10c-2 0-2 3 0 3s2-3 0-3M246.5 325c-2 0-2 3 0 3s2-3 0-3M269.5 442c-2 0-2 3 0 3s2-3 0-3M475.5 215c-2 0-2 3 0 3s2-3 0-3M140.5 452c-2 0-2 3 0 3s2-3 0-3M112.5 16c-2 0-2 3 0 3s2-3 0-3M398.5 192c-2 0-2 3 0 3s2-3 0-3M102.5 405c-2 0-2 3 0 3s2-3 0-3M575.5 76c-2 0-2 3 0 3s2-3 0-3M336.5 161c-2 0-2 3 0 3s2-3 0-3M18.5 0c-2 0-2 3 0 3s2-3 0-3M1.5 182c-2 0-2 3 0 3s2-3 0-3M186.5 2c-2 0-2 3 0 3s2-3 0-3M7.5 443c-2 0-2 3 0 3s2-3 0-3M421 397c-5.333 0-5.333 8 0 8s5.333-8 0-8M241.5 100c-2 0-2 3 0 3s2-3 0-3M239.5 9c-2 0-2 3 0 3s2-3 0-3M541.5 133c-2 0-2 3 0 3s2-3 0-3M716.5 377c-2 0-2 3 0 3s2-3 0-3M1049.5 59c-2 0-2 3 0 3s2-3 0-3M956.5 178c-2 0-2 3 0 3s2-3 0-3M707.5 310c-2 0-2 3 0 3s2-3 0-3M742.5 77c-2 0-2 3 0 3s2-3 0-3M1085.5 270c-2 0-2 3 0 3s2-3 0-3M867.5 218c-2 0-2 3 0 3s2-3 0-3M536.5 373c-2 0-2 3 0 3s2-3 0-3M900.5 332c-2 0-2 3 0 3s2-3 0-3M966.5 445c-2 0-2 3 0 3s2-3 0-3M777.5 130c-2 0-2 3 0 3s2-3 0-3M800.5 13c-2 0-2 3 0 3s2-3 0-3M1006.5 240c-2 0-2 3 0 3s2-3 0-3M671.5 3c-2 0-2 3 0 3s2-3 0-3M643.5 439c-2 0-2 3 0 3s2-3 0-3M929.5 263c-2 0-2 3 0 3s2-3 0-3M633.5 50c-2 0-2 3 0 3s2-3 0-3M1106.5 379c-2 0-2 3 0 3s2-3 0-3M867.5 294c-2 0-2 3 0 3s2-3 0-3M549.5 455c-2 0-2 3 0 3s2-3 0-3M532.5 273c-2 0-2 3 0 3s2-3 0-3M717.5 453c-2 0-2 3 0 3s2-3 0-3M538.5 12c-2 0-2 3 0 3s2-3 0-3M1121.5 172c-2 0-2 3 0 3s2-3 0-3M952 58c-5.333 0-5.333 8 0 8s5.333-8 0-8M772.5 355c-2 0-2 3 0 3s2-3 0-3M770.5 446c-2 0-2 3 0 3s2-3 0-3M1072.5 322c-2 0-2 3 0 3s2-3 0-3"/><circle cx="685.5" cy="195.5" r="3.5"/><circle cx="672.5" cy="140.5" r="2.5"/><circle cx="999.5" cy="389.5" r="2.5"/></g></svg>